<svg width="25" height="25" viewBox="0 0 25 25" fill="none" xmlns="http://www.w3.org/2000/svg">
<path d="M10.3744 5.5211C11.1111 5.27623 11.8969 5.14563 12.7122 5.14563C16.281 5.14563 19.2605 7.67273 19.9416 11.0324L25.0002 10.0039C23.8411 4.29673 18.7792 0 12.7122 0C11.3206 0 9.98804 0.225284 8.7373 0.643203L10.3744 5.5211Z" fill="white"/>
<path d="M4.40553 21.8657L7.82705 18.0097C6.30129 16.6613 5.33868 14.6925 5.33868 12.4984C5.33868 10.3076 6.30129 8.3388 7.82705 6.99362L4.40553 3.1344C1.81238 5.42642 0.175293 8.77304 0.175293 12.4984C0.175293 16.227 1.81238 19.5736 4.40553 21.8657Z" fill="#515151"/>
<path d="M19.9416 13.9741C19.2572 17.3305 16.281 19.8544 12.7154 19.8544C11.8969 19.8544 11.1078 19.7238 10.3744 19.4756L8.7373 24.3601C9.98804 24.7747 11.3239 25 12.7154 25C18.7759 25 23.8346 20.7098 25.0002 15.0091L19.9416 13.9741Z" fill="#9E9E9E"/>
</svg>
