<?xml version="1.0" encoding="utf-8"?>
<!-- Generator: Adobe Illustrator 26.5.0, SVG Export Plug-In . SVG Version: 6.00 Build 0)  -->
<svg version="1.1" id="Camada_1" xmlns="http://www.w3.org/2000/svg" xmlns:xlink="http://www.w3.org/1999/xlink" x="0px" y="0px"
	 viewBox="0 0 117.3 14.3" style="enable-background:new 0 0 117.3 14.3;" xml:space="preserve">
<style type="text/css">
	.st0{fill:#959595;}
	.st1{fill:#FFFFFF;}
</style>
<g>
	<g>
		<path class="st0" d="M6.6,2.1C6,1.8,5.3,1.6,4.3,1.6H0.4v11.6h1.4V9h2.5C5.3,9,6,8.8,6.6,8.5c0.6-0.3,1-0.8,1.3-1.3
			C8.2,6.6,8.3,6,8.3,5.3S8.2,4,7.9,3.4S7.2,2.4,6.6,2.1z M6.6,6.5C6.5,6.9,6.2,7.2,5.8,7.4C5.4,7.6,4.9,7.7,4.3,7.7H1.8V2.9h2.5
			c0.6,0,1.1,0.1,1.5,0.3C6.2,3.4,6.5,3.7,6.6,4c0.2,0.4,0.3,0.8,0.3,1.2S6.8,6.2,6.6,6.5z"/>
		<path class="st0" d="M12.7,1.6L8.4,13.2h1.5L11,9.9h4.7l1.2,3.3h1.5L14.1,1.6H12.7z M11.5,8.7l1.9-5.2h0.1l1.9,5.2H11.5z"/>
		<polygon class="st0" points="26.2,1.6 23,7 22.8,7 19.6,1.6 18,1.6 22.2,8.4 22.2,13.2 23.6,13.2 23.6,8.4 27.8,1.6 		"/>
	</g>
	<g>
		<path class="st1" d="M48,1.6l-4,11.6h2.6l0.9-2.7h4.2l0.9,2.7h2.6l-4-11.6H48z M48.1,8.7l1.4-4.4h0.1l1.4,4.4H48.1z"/>
		<polygon class="st1" points="41.8,1.6 39.9,9.7 39.8,9.7 37.7,1.6 35.4,1.6 33.2,9.7 33.1,9.7 31.2,1.6 28.5,1.6 31.9,13.2 
			34.3,13.2 36.5,5.6 36.6,5.6 38.8,13.2 41.2,13.2 44.5,1.6 		"/>
		<polygon class="st1" points="68.2,1.6 65.7,1.6 65.7,13.2 73.1,13.2 73.1,11.2 68.2,11.2 		"/>
		<polygon class="st1" points="59.1,1.6 56.6,1.6 56.6,13.2 64.1,13.2 64.1,11.2 59.1,11.2 		"/>
		<polygon class="st1" points="84.1,1.6 84.1,3.6 87.7,3.6 87.7,13.2 90.1,13.2 90.1,3.6 93.7,3.6 93.7,1.6 		"/>
		<polygon class="st1" points="77.2,8.4 82.2,8.4 82.2,6.4 77.2,6.4 77.2,3.6 82.6,3.6 82.6,1.6 74.8,1.6 74.8,13.2 82.6,13.2 
			82.6,11.2 77.2,11.2 		"/>
	</g>
</g>
<path class="st1" d="M117,3.4c-0.2-0.2-0.5-0.4-0.9-0.4h-12.5c-0.2,0-0.3-0.1-0.4-0.2s-0.2-0.3-0.2-0.4s0.1-0.3,0.2-0.4
	s0.3-0.2,0.4-0.2h10.6c0.3,0,0.6-0.3,0.6-0.6s-0.3-0.6-0.6-0.6h-10.6c-0.5,0-1,0.2-1.3,0.5s-0.5,0.8-0.5,1.3v10c0,0.5,0.2,1,0.5,1.3
	c0.4,0.4,0.8,0.5,1.3,0.5h12.5c0.3,0,0.6-0.1,0.9-0.4c0.2-0.2,0.4-0.6,0.4-0.9V4.3C117.3,4,117.2,3.6,117,3.4z M116.1,13h-12.5
	c-0.2,0-0.3-0.1-0.4-0.2c-0.1-0.1-0.2-0.3-0.2-0.4V4.2c0.2,0.1,0.4,0.1,0.6,0.1l12.5,0L116.1,13z"/>
</svg>
