<svg width="20" height="21" viewBox="0 0 20 21" fill="none" xmlns="http://www.w3.org/2000/svg">
<path d="M3.12498 5.15675V15.1568C3.12498 15.4883 3.25668 15.8062 3.4911 16.0406C3.72552 16.2751 4.04346 16.4068 4.37498 16.4068H16.875C17.0407 16.4068 17.1997 16.3409 17.3169 16.2237C17.4341 16.1065 17.5 15.9475 17.5 15.7818V7.03175C17.5 6.86599 17.4341 6.70702 17.3169 6.58981C17.1997 6.4726 17.0407 6.40675 16.875 6.40675H4.37498C4.04346 6.40675 3.72552 6.27506 3.4911 6.04064C3.25668 5.80622 3.12498 5.48827 3.12498 5.15675ZM3.12498 5.15675C3.12498 4.82523 3.25668 4.50729 3.4911 4.27287C3.72552 4.03845 4.04346 3.90675 4.37498 3.90675H15" stroke="white" stroke-width="1.2402" stroke-linecap="round" stroke-linejoin="round"/>
</svg>
